<?xml version="1.0" encoding="UTF-8" standalone="no"?>
<svg width="160px" height="140px" viewBox="0 0 160 140" version="1.1" xmlns="http://www.w3.org/2000/svg" xmlns:xlink="http://www.w3.org/1999/xlink">
    <!-- Generator: Sketch 3.6.1 (26313) - http://www.bohemiancoding.com/sketch -->
    <title>how-it-works-01</title>
    <desc>Created with Sketch.</desc>
    <defs></defs>
    <g id="Final" stroke="none" stroke-width="1" fill="none" fill-rule="evenodd">
        <g id="ND-Hub-Option-2-Copy-2" transform="translate(-169.000000, -860.000000)">
            <g id="choose-nd-copy" transform="translate(189.000000, 867.000000)">
                <path d="M60,128 C93.137085,128 120,101.137085 120,68 C120,34.862915 93.137085,8 60,8 C26.862915,8 0,34.862915 0,68 C0,101.137085 26.862915,128 60,128 Z" id="Bg" fill="#DAE1E7"></path>
                <g id="NDs" transform="translate(6.000000, 33.000000)" stroke="#2E3D49" stroke-width="2" stroke-linejoin="round">
                    <g id="4" transform="translate(59.855422, 40.714286)">
                        <rect id="Rectangle-834-Copy-2" fill="#FFFFFF" x="2.14457831" y="0.285714286" width="46" height="32"></rect>
                        <rect id="Rectangle-838-Copy" fill="#02B3E4" x="0.144578313" y="5.28571429" width="4" height="11"></rect>
                    </g>
                    <g id="3" transform="translate(0.000000, 40.714286)">
                        <rect id="Rectangle-834-Copy-2" fill="#FFFFFF" x="2" y="0.285714286" width="46" height="32"></rect>
                        <rect id="Rectangle-838-Copy" fill="#02B3E4" x="0" y="5.28571429" width="4" height="11"></rect>
                    </g>
                    <g id="2" transform="translate(59.855422, 0.000000)" fill="#02B3E4">
                        <rect id="Rectangle-834-Copy-2" x="2.14457831" y="0" width="46" height="32"></rect>
                        <rect id="Rectangle-838-Copy-2" x="0.144578313" y="5" width="4" height="11"></rect>
                    </g>
                    <g id="1">
                        <g id="Group-7">
                            <rect id="Rectangle-834-Copy-2" fill="#FFFFFF" x="2" y="0" width="46" height="32"></rect>
                            <rect id="Rectangle-838-Copy" fill="#02B3E4" x="0" y="5" width="4" height="11"></rect>
                        </g>
                    </g>
                </g>
                <g id="elements" transform="translate(31.000000, 0.000000)" stroke-width="2">
                    <ellipse id="Oval-376-Copy" stroke="#2E3D49" fill="#FFFFFF" cx="2" cy="15" rx="2" ry="2"></ellipse>
                    <g id="Spark-Copy-2" transform="translate(47.998046, 8.274335) rotate(-22.000000) translate(-47.998046, -8.274335) translate(41.998046, 1.774335)" stroke="#15C26B" stroke-linecap="round" stroke-linejoin="round">
                        <path d="M5.98468603,0.349706326 L5.98468603,3.58909878" id="Line"></path>
                        <path d="M5.98468603,8.7721267 L5.98468603,12.0115192" id="Line-Copy-3"></path>
                        <path d="M11.8155924,6.18061274 L8.57619999,6.18061274" id="Line-Copy"></path>
                        <path d="M3.39317206,6.18061274 L0.153779611,6.18061274" id="Line-Copy-2"></path>
                    </g>
                    <g id="Spark-Copy-3" transform="translate(9.396945, 126.396945) rotate(13.000000) translate(-9.396945, -126.396945) translate(4.896945, 121.896945)" stroke="#F95C3C" stroke-linecap="round" stroke-linejoin="round">
                        <path d="M4.48851452,0.24210438 L4.48851452,2.48476069" id="Line"></path>
                        <path d="M4.48851452,6.0730108 L4.48851452,8.31566711" id="Line-Copy-3"></path>
                        <path d="M8.86169433,4.27888574 L6.43214999,4.27888574" id="Line-Copy"></path>
                        <path d="M2.54487905,4.27888574 L0.115334708,4.27888574" id="Line-Copy-2"></path>
                    </g>
                    <path d="M56.9551644,128.762383 L49.7421571,124.987388 L56.2388326,119.934939 L56.9551644,128.762383 L56.9551644,128.762383 Z" id="Triangle-3" stroke="#2E3D49" stroke-linecap="round" stroke-linejoin="round" fill="#ECC81A" transform="translate(53.348661, 124.348661) rotate(57.000000) translate(-53.348661, -124.348661) "></path>
                </g>
                <g id="icon_nanodegree-stroke" transform="translate(18.000000, 43.000000)" stroke="#02B3E4" stroke-width="2">
                    <path d="M6.70800545,0.882388651 C6.97594809,0.395058856 7.6465484,0 8.18810415,0 L17.4097106,0 C17.9592039,0 18.1851351,0.399261475 17.9195032,0.882388651 L12.2919946,11.1176113 C12.0240519,11.6049411 11.3534516,12 10.8118959,12 L1.5902894,12 C1.0407961,12 0.814864876,11.6007385 1.08049684,11.1176113 L6.70800545,0.882388651 Z" id="left"></path>
                    <path d="M13.7080054,0.882388651 C13.9759481,0.395058856 14.6465484,0 15.1881041,0 L24.4097106,0 C24.9592039,0 25.1851351,0.399261475 24.9195032,0.882388651 L19.2919946,11.1176113 C19.0240519,11.6049411 18.3534516,12 17.8118959,12 L8.5902894,12 C8.0407961,12 7.81486488,11.6007385 8.08049684,11.1176113 L13.7080054,0.882388651 Z" id="right" transform="translate(16.500000, 6.000000) scale(-1, 1) translate(-16.500000, -6.000000) "></path>
                </g>
                <g id="icon_nanodegree-stroke-copy" transform="translate(18.000000, 84.000000)" stroke="#02B3E4" stroke-width="2">
                    <path d="M6.70800545,0.882388651 C6.97594809,0.395058856 7.6465484,0 8.18810415,0 L17.4097106,0 C17.9592039,0 18.1851351,0.399261475 17.9195032,0.882388651 L12.2919946,11.1176113 C12.0240519,11.6049411 11.3534516,12 10.8118959,12 L1.5902894,12 C1.0407961,12 0.814864876,11.6007385 1.08049684,11.1176113 L6.70800545,0.882388651 Z" id="left"></path>
                    <path d="M13.7080054,0.882388651 C13.9759481,0.395058856 14.6465484,0 15.1881041,0 L24.4097106,0 C24.9592039,0 25.1851351,0.399261475 24.9195032,0.882388651 L19.2919946,11.1176113 C19.0240519,11.6049411 18.3534516,12 17.8118959,12 L8.5902894,12 C8.0407961,12 7.81486488,11.6007385 8.08049684,11.1176113 L13.7080054,0.882388651 Z" id="right" transform="translate(16.500000, 6.000000) scale(-1, 1) translate(-16.500000, -6.000000) "></path>
                </g>
                <g id="icon_nanodegree-stroke-copy-2" transform="translate(78.000000, 84.000000)" stroke="#02B3E4" stroke-width="2">
                    <path d="M6.70800545,0.882388651 C6.97594809,0.395058856 7.6465484,0 8.18810415,0 L17.4097106,0 C17.9592039,0 18.1851351,0.399261475 17.9195032,0.882388651 L12.2919946,11.1176113 C12.0240519,11.6049411 11.3534516,12 10.8118959,12 L1.5902894,12 C1.0407961,12 0.814864876,11.6007385 1.08049684,11.1176113 L6.70800545,0.882388651 Z" id="left"></path>
                    <path d="M13.7080054,0.882388651 C13.9759481,0.395058856 14.6465484,0 15.1881041,0 L24.4097106,0 C24.9592039,0 25.1851351,0.399261475 24.9195032,0.882388651 L19.2919946,11.1176113 C19.0240519,11.6049411 18.3534516,12 17.8118959,12 L8.5902894,12 C8.0407961,12 7.81486488,11.6007385 8.08049684,11.1176113 L13.7080054,0.882388651 Z" id="right" transform="translate(16.500000, 6.000000) scale(-1, 1) translate(-16.500000, -6.000000) "></path>
                </g>
                <g id="icon_nanodegree-stroke-copy-3" transform="translate(78.000000, 43.000000)" stroke="#FFFFFF" stroke-width="2">
                    <path d="M6.70800545,0.882388651 C6.97594809,0.395058856 7.6465484,0 8.18810415,0 L17.4097106,0 C17.9592039,0 18.1851351,0.399261475 17.9195032,0.882388651 L12.2919946,11.1176113 C12.0240519,11.6049411 11.3534516,12 10.8118959,12 L1.5902894,12 C1.0407961,12 0.814864876,11.6007385 1.08049684,11.1176113 L6.70800545,0.882388651 Z" id="left"></path>
                    <path d="M13.7080054,0.882388651 C13.9759481,0.395058856 14.6465484,0 15.1881041,0 L24.4097106,0 C24.9592039,0 25.1851351,0.399261475 24.9195032,0.882388651 L19.2919946,11.1176113 C19.0240519,11.6049411 18.3534516,12 17.8118959,12 L8.5902894,12 C8.0407961,12 7.81486488,11.6007385 8.08049684,11.1176113 L13.7080054,0.882388651 Z" id="right" transform="translate(16.500000, 6.000000) scale(-1, 1) translate(-16.500000, -6.000000) "></path>
                </g>
            </g>
        </g>
    </g>
</svg>