<?xml version="1.0" encoding="UTF-8" standalone="no"?>
<svg width="160px" height="140px" viewBox="0 0 160 140" version="1.1" xmlns="http://www.w3.org/2000/svg" xmlns:xlink="http://www.w3.org/1999/xlink">
    <!-- Generator: Sketch 3.6.1 (26313) - http://www.bohemiancoding.com/sketch -->
    <title>how-it-works-02</title>
    <desc>Created with Sketch.</desc>
    <defs>
        <path id="path-1" d="M0.181818182,36.1428551 C0.181818182,20.5623471 12.9670708,7.93180093 28.7384182,7.93180093 C44.5097656,7.93180093 57.2950182,20.5623471 57.2950182,36.1428551 C57.2950182,51.7233632 44.5097656,64.3539094 28.7384182,64.3539094 C12.9670708,64.3539094 0.181818182,51.7233632 0.181818182,36.1428551"></path>
    </defs>
    <g id="Final" stroke="none" stroke-width="1" fill="none" fill-rule="evenodd">
        <g id="ND-Hub-Option-2-Copy-2" transform="translate(-409.000000, -860.000000)">
            <g id="Reviews" transform="translate(422.000000, 875.000000)">
                <path d="M68,120 C101.137085,120 128,93.137085 128,60 C128,26.862915 101.137085,0 68,0 C34.862915,0 8,26.862915 8,60 C8,93.137085 34.862915,120 68,120 Z" id="Bg" fill="#DAE1E7"></path>
                <g id="Page-Review" transform="translate(32.939394, 7.000000)">
                    <g id="Page-1">
                        <path d="M69.515152,12.4628906 L69.5151515,82.919061 L0,82.919061 L0,0 L54.7925415,0" id="Fill-1" fill="#FFFFFF"></path>
                        <path d="M54.9393939,0 L69.5151515,12.1614623" id="Line" stroke="#2E3D49" stroke-width="2" stroke-linecap="round"></path>
                        <path d="M54.8178574,0 L7.60065364e-14,0 L-3.12539723e-06,83.377923 L69.591798,83.377923 L69.591798,12.2602526" id="Stroke-2" stroke="#2E3D49" stroke-width="2" stroke-linecap="round" stroke-linejoin="round"></path>
                        <g id="Group-11" transform="translate(53.252662, 0.000000)" stroke="#2E3D49" stroke-width="2" stroke-linecap="round" stroke-linejoin="round">
                            <path d="M15.1412771,13.2670498 L1.68673168,13.2670498" id="Stroke-7"></path>
                            <path d="M1.68673168,13.2670498 L1.68673168,0" id="Stroke-9"></path>
                        </g>
                        <g id="1" transform="translate(8.969697, 12.161462)" stroke-width="2" stroke-linecap="round">
                            <path d="M13.405371,1.66404372 L39.2486316,1.66404372" id="Stroke-18" stroke="#2E3D49" stroke-linejoin="round"></path>
                            <path d="M13.405371,6.1661731 L28.0605125,6.1661731" id="Stroke-18-Copy" stroke="#2E3D49" stroke-linejoin="round"></path>
                            <path d="M31.653448,6.1661731 L36.066361,6.1661731" id="Stroke-18-Copy-2" stroke="#2E3D49" stroke-linejoin="round"></path>
                            <path d="M0.560606061,3.30005293 L2.50813064,5.18117448 L6.58466282,0.935497099" id="Path-210" stroke="#15C26B"></path>
                        </g>
                        <g id="2" transform="translate(21.969697, 28.850862)" stroke="#2E3D49" stroke-width="2" stroke-linecap="round" stroke-linejoin="round">
                            <path d="M0.405370984,0.0284386104 L34.8285525,0.0284386104" id="Stroke-18-Copy-3"></path>
                            <path d="M0.405370984,4.53056799 L31.848484,4.53056799" id="Stroke-18-Copy-4"></path>
                        </g>
                        <g id="3" transform="translate(8.969697, 44.434674)" stroke-width="2" stroke-linecap="round">
                            <path d="M13.405371,0.604008465 L47.8285525,0.604008465" id="Stroke-18-Copy-8" stroke="#2E3D49" stroke-linejoin="round"></path>
                            <path d="M13.405371,5.10613785 L31.3939386,5.10613785" id="Stroke-18-Copy-7" stroke="#2E3D49" stroke-linejoin="round"></path>
                            <path d="M35.5334294,5.10613785 L43.7384306,5.10613785" id="Stroke-18-Copy-6" stroke="#2E3D49" stroke-linejoin="round"></path>
                            <path d="M0.560606061,2.88697629 L2.50813064,4.76809784 L6.58466282,0.522420458" id="Path-210-Copy-2" stroke="#15C26B"></path>
                        </g>
                        <g id="4" transform="translate(10.090909, 64.124074)" stroke="#15C26B" stroke-width="2" stroke-linecap="round">
                            <path d="M0,2.36455583 L1.94752458,4.24567738 L6.02405676,0" id="Path-210-Copy-3"></path>
                        </g>
                    </g>
                    <g id="Group" transform="translate(7.060606, 28.000000)" stroke="#02B3E4" stroke-width="2" stroke-linecap="round">
                        <path d="M5.18181818,0 C6.93929545,0 8.36363636,1.42434091 8.36363636,3.18181818 C8.36363636,4.93929545 6.93929545,6.36363636 5.18181818,6.36363636 C3.42497727,6.36363636 2,4.93929545 2,3.18181818" id="Page-1" stroke-linejoin="round"></path>
                        <path d="M0.115112305,3.37072754 L2.03686523,1.67663574 L3.98681641,3.1385498" id="Path-224"></path>
                    </g>
                </g>
                <g id="Review-bubble" transform="translate(15.000000, 66.701724)">
                    <path d="M0,0 L0,32.219978 L33.6363636,32.219978 L39.2424242,37.5899743 L39.2424242,32.219978 L56.0606061,32.219978 L56.0606061,0 L0,0 Z" id="Fill-1" fill="#91DAEE"></path>
                    <path d="M11.2121212,9.95028732 L44.8484848,9.95028732" id="Stroke-2" stroke="#2E3D49" stroke-width="2" stroke-linecap="round" stroke-linejoin="round"></path>
                    <path d="M11.2121212,15.4782247 L44.8484848,15.4782247" id="Stroke-3" stroke="#2E3D49" stroke-width="2" stroke-linecap="round" stroke-linejoin="round"></path>
                    <path d="M11.2121212,21.0061621 L44.8484848,21.0061621" id="Stroke-4" stroke="#2E3D49" stroke-width="2" stroke-linecap="round" stroke-linejoin="round"></path>
                    <path d="M0,0 L0,32.219978 L33.6363636,32.219978 L39.2424242,37.5899743 L39.2424242,32.219978 L56.0606061,32.219978 L56.0606061,0 L0,0 L0,0 Z" id="Stroke-5" stroke="#2E3D49" stroke-width="2" stroke-linecap="round" stroke-linejoin="round"></path>
                </g>
                <g id="Elements" transform="translate(0.000000, 30.000000)" stroke="#2E3D49" stroke-width="2">
                    <polygon id="Star-1-Copy" stroke-linejoin="round" fill="#ECC81A" transform="translate(125.550099, 17.669206) rotate(-342.000000) translate(-125.550099, -17.669206) " points="125.550099 21.4664658 121.80198 23.4369688 122.517807 19.2633765 119.485515 16.307622 123.67604 15.6987031 125.550099 11.9014434 127.424159 15.6987031 131.614684 16.307622 128.582392 19.2633765 129.298219 23.4369688 "></polygon>
                    <polygon id="Star-1-Copy-2" stroke-linejoin="round" fill="#ECC81A" transform="translate(11.037374, 11.265933) rotate(-323.000000) translate(-11.037374, -11.265933) " points="11.0373745 16.1454751 6.45670965 18.6776044 7.33153878 13.3144686 3.62570311 9.51627477 8.74704205 8.73380381 11.0373745 3.8542617 13.3277069 8.73380381 18.4490458 9.51627477 14.7432101 13.3144686 15.6180393 18.6776044 "></polygon>
                    <ellipse id="Oval-376-Copy-4" fill="#FFFFFF" cx="119.49944" cy="2.49776429" rx="1.49944045" ry="1.49776429"></ellipse>
                </g>
                <g id="Avatar" transform="translate(67.818182, 55.068199)">
                    <path d="M0.0028891866,36.3427153 C0.0028891866,20.7622073 12.7881418,8.13166111 28.5594892,8.13166111 C44.3308366,8.13166111 57.1160892,20.7622073 57.1160892,36.3427153 C57.1160892,51.9232233 44.3308366,64.5537695 28.5594892,64.5537695 C12.7881418,64.5537695 0.0028891866,51.9232233 0.0028891866,36.3427153" id="Fill-1" stroke="#2E3D49" stroke-width="2" fill="#02CCBA"></path>
                    <g id="3">
                        <mask id="mask-2" fill="white">
                            <use xlink:href="#path-1"></use>
                        </mask>
                        <use id="Mask" xlink:href="#path-1"></use>
                        <rect id="Rectangle-270" fill="#02B3E4" mask="url(#mask-2)" x="7.62068966" y="53.7570621" width="43" height="12"></rect>
                        <g transform="translate(6.620690, 0.610169)">
                            <g id="Body" transform="translate(0.000000, 40.146893)">
                                <path d="M44.6622037,13.2855786 C43.3585735,12.3742793 42.7534854,12.243154 41.1699346,11.740863 L31.1160366,9.48210923 L12.5943376,9.48210923 L2.52489716,11.740863 L0.100191027,12.9701489" id="Fill-34" stroke="#2E3D49" stroke-width="2" fill="#02B3E4"></path>
                                <path d="M16.1080822,3.00188293 L16.1080822,0 L28.6039547,0 L28.6039547,2.95131073 C28.6039547,4.15943064 28.4977412,7.20269976 30.9671127,8.40919164 C31.1771689,8.51182147 34.3712805,9.86893472 34.3712805,9.86893472 C34.3712805,9.86893472 29.7746017,14.2217445 21.891636,14.0833998 C14.0086702,13.9450551 10.0203494,9.86893462 10.0203494,9.86893462 C10.0203494,9.86893462 12.8753584,8.55586736 13.2181222,8.40919164 C15.7234759,7.33709914 16.0081702,5.31924145 16.1080822,3.00188293 Z" id="Fill-48" stroke="#2E3D49" stroke-width="2" fill="#F4F4EB"></path>
                                <path d="M16.9531972,3.38571046 L27.6438027,3.38571046 C27.6438027,3.38571046 27.5020519,5.22552939 28.4318411,7.06534831 C25.3044821,7.06534831 22.2121083,6.58288021 20.6223808,6.35809361 C16.4490808,5.76799126 16.6580672,5.33519818 16.6580672,5.33519818 L16.9531972,3.38571046 Z" id="Path-182" fill="#E6E6DE" style="mix-blend-mode: multiply;"></path>
                            </g>
                            <g id="Face" transform="translate(3.241379, 0.000000)">
                                <path d="M0.370830324,25.9322034 C0.370830324,22.7492655 2.95266983,20.1694915 6.13815611,20.1694915 C9.32364238,20.1694915 11.9054819,22.7492655 11.9054819,25.9322034 C11.9054819,29.1151412 9.32364238,31.6949153 6.13815611,31.6949153 C2.95266983,31.6949153 0.370830324,29.1151412 0.370830324,25.9322034 L0.370830324,25.9322034 Z" id="Stroke-42" stroke="#2E3D49" stroke-width="2" stroke-linecap="round" stroke-linejoin="round" fill="#F4F4EB"></path>
                                <path d="M25.3625754,25.9322034 C25.3625754,22.7492655 27.9444149,20.1694915 31.1299012,20.1694915 C34.3153874,20.1694915 36.8972269,22.7492655 36.8972269,25.9322034 C36.8972269,29.1151412 34.3153874,31.6949153 31.1299012,31.6949153 C27.9444149,31.6949153 25.3625754,29.1151412 25.3625754,25.9322034" id="Fill-44" stroke="#2E3D49" stroke-width="2" fill="#F4F4EB"></path>
                                <path d="M4.21571418,30.8504374 L4.21571418,15.2512576 C4.21571418,7.91956308 10.7039557,1.92090395 18.6340286,1.92090395 C26.5641016,1.92090395 33.0523431,7.91956308 33.0523431,15.2512576 L33.0523431,30.8504374 C33.0523431,38.1821318 26.5641016,44.180791 18.6340286,44.180791 C10.7039557,44.180791 4.21571418,38.1821318 4.21571418,30.8504374 Z" id="Fill-54" stroke="#2E3D49" stroke-width="2" fill="#F4F4EB"></path>
                                <path d="M34.974785,16.9842059 C34.974785,7.72892502 27.5210028,-0.12416212 18.4113362,0.0014872743 C9.52534886,0.123794929 2.29327225,7.54579771 2.29327225,16.6005743 L2.29327225,21.7702448 L8.58721175,21.7702448 C12.4002852,21.7702448 16.0061263,20.0091483 18.3883104,16.9848743 L22.4789125,11.5254237 L23.6851322,14.421435 C25.6107474,19.2228459 29.8716086,21.7702448 34.974785,22.0903955 L34.974785,16.9842059 Z" id="Fill-58" stroke="#2E3D49" stroke-width="2" fill="#988D73"></path>
                                <path d="M10.9442609,25.9322034 C10.9442609,24.8712241 11.8048741,24.0112994 12.8667028,24.0112994 C13.9285316,24.0112994 14.7891448,24.8712241 14.7891448,25.9322034 C14.7891448,26.9931827 13.9285316,27.8531073 12.8667028,27.8531073 C11.8048741,27.8531073 10.9442609,26.9931827 10.9442609,25.9322034" id="Fill-62" fill="#2E3D48"></path>
                                <path d="M22.4789125,25.9322034 C22.4789125,24.8712241 23.3395257,24.0112994 24.4013544,24.0112994 C25.4631832,24.0112994 26.3237963,24.8712241 26.3237963,25.9322034 C26.3237963,26.9931827 25.4631832,27.8531073 24.4013544,27.8531073 C23.3395257,27.8531073 22.4789125,26.9931827 22.4789125,25.9322034" id="Fill-64" fill="#2E3D48"></path>
                                <path d="M18.6342328,34.5762712 C14.8076839,34.5762712 14.5741842,31.6949153 13.8279238,31.6949153 C13.3567003,31.6949153 12.7202178,32.3544988 12.9041327,33.0232161 C13.60914,35.5819567 15.9042453,37.4576271 18.6342328,37.4576271 C21.3635817,37.4576271 23.6593256,35.5819567 24.3636943,33.0232161 C24.5482478,32.3544988 23.9301312,31.6949153 23.4562086,31.6949153 C22.8302184,31.6949153 22.5199805,34.5762712 18.6342328,34.5762712 Z" id="Fill-66" fill="#2E3D48"></path>
                            </g>
                        </g>
                    </g>
                    <g id="Rectangle-270" transform="translate(0.000000, 7.000000)"></g>
                    <path d="M57.1160892,36.3427153 C57.1160892,51.9232233 44.3308366,64.5537695 28.5594892,64.5537695 C12.7881418,64.5537695 0.0028891866,51.9232233 0.0028891866,36.3427153" id="Fill-1" stroke="#2E3D49" stroke-width="2"></path>
                </g>
            </g>
        </g>
    </g>
</svg>