<?xml version="1.0" encoding="UTF-8" standalone="no"?>
<svg width="60px" height="64px" viewBox="0 0 60 64" version="1.1" xmlns="http://www.w3.org/2000/svg" xmlns:xlink="http://www.w3.org/1999/xlink">
    <!-- Generator: Sketch 3.7.1 (28215) - http://www.bohemiancoding.com/sketch -->
    <title>Group</title>
    <desc>Created with Sketch.</desc>
    <defs></defs>
    <g id="Page-1" stroke="none" stroke-width="1" fill="none" fill-rule="evenodd">
        <g id="Group">
            <g transform="translate(0.000000, 49.268750)" id="Shape" fill="#435363">
                <path d="M0,7.51045001 L0,7.47045 C0,3.47925 3.00799999,0.21045 7.32,0.21045 C9.96799999,0.21045 11.552,1.09365 12.8552,2.37604999 L10.8896,4.64245001 C9.8064,3.66004999 8.70319999,3.05845001 7.29919999,3.05845001 C4.93279999,3.05845001 3.228,5.02405001 3.228,7.43125001 L3.228,7.47124999 C3.228,9.87844999 4.89280001,11.88405 7.29919999,11.88405 C8.904,11.88405 9.88639999,11.24165 10.9896,10.23925 L12.9552,12.22485 C11.512,13.76805 9.90799999,14.73125 7.2,14.73125 C3.06880001,14.73125 0,11.54245 0,7.51045001"></path>
                <polygon points="16.9992 0.451249999 20.0872 0.451249999 20.0872 6.00645 25.7832 6.00645 25.7832 0.451249999 28.8727999 0.451249999 28.8727999 14.49045 25.7832 14.49045 25.7832 8.85445001 20.0872 8.85445001 20.0872 14.49045 16.9992 14.49045"></polygon>
                <polygon points="33.8416001 0.45525 44.6008001 0.45525 44.6008001 3.24645 36.9592001 3.24645 36.9592001 6.13924999 43.6831999 6.13924999 43.6831999 8.93125001 36.9592001 8.93125001 36.9592001 11.92645 44.7024 11.92645 44.7024 14.71765 33.8416001 14.71765"></polygon>
                <polygon points="49.2 0.451249999 59.8888001 0.451249999 59.8888001 3.25924999 52.2871999 3.25924999 52.2871999 6.24724999 58.9864001 6.24724999 58.9864001 9.05524999 52.2871999 9.05524999 52.2871999 14.49045 49.2 14.49045"></polygon>
            </g>
            <g transform="translate(9.600000, 0.000000)" id="Shape">
                <path d="M20.772,29.9224001 C15.6488,29.9224001 11.48,25.7544 11.48,20.6312 C11.48,15.5072 15.6488,11.3384 20.772,11.3384 C25.0015999,11.3384 28.5768,14.1792 29.6976,18.052 L33.2928,18.052 C32.0959999,12.2352 26.9376,7.848 20.772,7.848 C13.724,7.848 7.9896,13.5824 7.9896,20.6312 C7.9896,27.6792 13.724,33.4135999 20.772,33.4135999 C26.9376,33.4135999 32.0959999,29.0272001 33.2928,23.2104 L29.6976,23.2104 C28.5768,27.0823999 25.0015999,29.9224001 20.772,29.9224001" fill="#435363"></path>
                <path d="M14.508,26.8944 C16.1128,28.4992001 18.3288,29.4936 20.772,29.4936 L20.772,25.7887999 C19.348,25.7887999 18.0584,25.2103999 17.1248,24.2776001 L14.508,26.8944 L14.508,26.8944 L14.508,26.8944 Z" fill="#435363"></path>
                <path d="M11.9096,20.6304 C11.9096,21.8984 12.18,23.1048 12.6616,24.1968 L16.0504,22.7064 C15.7704,22.0712 15.6136,21.3696 15.6136,20.6304 C15.6136,17.7816 17.9232,15.4728 20.7712,15.4728 L20.7712,11.768 C15.8848,11.768 11.9096,15.744 11.9096,20.6304" fill="#F38B00"></path>
                <path d="M23.9848001,12.372 L22.6408,15.8256 C23.7384,16.2536 24.6544001,17.0432 25.2367999,18.0512 L29.2495999,18.0512 C28.4575999,15.4504 26.4991999,13.3536 23.9848001,12.372" fill="#435363"></path>
                <path d="M22.6424,25.4352 L23.9856,28.8888 C26.5000001,27.9072 28.4584001,25.8096 29.2512,23.2088 L25.2384,23.2088 C24.6544001,24.2176001 23.7391999,25.008 22.6424,25.4352" fill="#F38B00"></path>
                <path d="M4.37599999,25.5880001 C4.3176,25.3944 4.26160001,25.1992001 4.2096,25.0024001 C4.20640001,24.9904001 4.20319999,24.9784001 4.2,24.9664001 C4.152,24.7840001 4.10800001,24.6016001 4.0656,24.4176 C4.05679999,24.3799999 4.0488,24.3424001 4.04080001,24.3048 C4.0056,24.1471999 3.97360001,23.988 3.94240001,23.8288001 C3.9288,23.7576 3.9168,23.6863999 3.9048,23.6152001 C3.88240001,23.4880001 3.85999999,23.3616 3.84,23.2328 C3.8232,23.1232 3.8088,23.0144 3.7944,22.9048 C3.6936,22.1576 3.63919999,21.3984 3.64000001,20.6296 L0.14,20.6296 C0.1392,21.468 0.192,22.296 0.2904,23.1136 L0.2904,23.1136 C0.292000001,23.1312 0.2952,23.1488 0.2976,23.1664 C0.324799999,23.3888 0.3552,23.6112 0.389599999,23.8312001 C0.399199999,23.892 0.409600001,23.9527999 0.42,24.0144 C0.450400001,24.1951999 0.481600001,24.3760001 0.516799999,24.5560001 C0.534400001,24.6520001 0.555199999,24.7464 0.575200001,24.8416001 C0.6048,24.9847999 0.635200001,25.128 0.667999999,25.2703999 C0.696799999,25.3951999 0.727999999,25.5199999 0.760000001,25.6447999 C0.787999999,25.7560001 0.815200001,25.8672 0.8448,25.9783999 C0.884800001,26.1256001 0.927199999,26.2711999 0.9696,26.4175999 C0.987199999,26.4784001 1.0032,26.5408001 1.0216,26.6008001 L1.0232,26.6008001 C1.2648,27.4000001 1.5512,28.1800001 1.884,28.9351999 L5.09119999,27.5248001 C4.81519999,26.8992 4.5768,26.2512 4.37599999,25.5880001 L4.37599999,25.5880001 L4.37599999,25.5880001 Z" fill="#435363"></path>
                <path d="M20.772,37.7632001 C16.0488,37.7632001 11.7672,35.8399999 8.66560001,32.7376001 L6.18640001,35.2168001 C9.91999999,38.9503999 15.0752,41.2624001 20.772,41.2624001 C31.2928001,41.2624001 39.9727999,33.3871999 41.2423999,23.2104 L37.7104001,23.2104 C36.4624001,31.4368001 29.3424,37.7632001 20.772,37.7632001" fill="#F38B00"></path>
                <path d="M20.772,3.4992 C24.6096,3.4992 28.1544,4.76719999 31.0135999,6.9072 L33.1104,4.0968 C29.6688,1.524 25.3984001,0 20.772,0 C12.0176,0 4.53760001,5.4528 1.5424,13.148 L4.8072,14.4184 C7.29919999,8.03359999 13.516,3.4992 20.772,3.4992" fill="#F38B00"></path>
                <path d="M37.7104001,18.052 L41.2423999,18.052 C40.8640001,15.016 39.8256,12.1848 38.2752,9.70639999 L35.3008001,11.5624 C36.5152001,13.5008 37.3528001,15.6984 37.7104001,18.052" fill="#435363"></path>
                <path d="M33.7312001,18.052 L37.2751999,18.052 C36.3504,12.1096 32.2807999,7.19599999 26.8272,5.06719999 L25.5616001,8.32159999 C29.7088001,9.9408 32.8456001,13.5944 33.7312001,18.052" fill="#F38B00"></path>
                <path d="M20.772,7.4184 L20.772,7.4184 L20.7728,3.9288 L20.772,3.9288 C13.6976,3.9288 7.63759999,8.3496 5.20720001,14.5744 L8.45920001,15.84 C10.3824,10.916 15.176,7.4184 20.772,7.4184" fill="#435363"></path>
                <path d="M7.56,20.6304 L7.56,20.6304 L4.0704,20.6304 C4.0704,27.6487999 8.42320001,33.6672 14.5704,36.1344 L15.8664,32.8951999 C11.0032,30.9432 7.56,26.1823999 7.56,20.6304" fill="#F38B00"></path>
                <path d="M20.772,33.8424 L20.772,37.3327999 C29.1048,37.3327999 36.0312,31.1983999 37.2751999,23.2088 L33.7303999,23.2088 C32.5279999,29.2648001 27.1752,33.8424 20.772,33.8424" fill="#435363"></path>
            </g>
        </g>
    </g>
</svg>